<svg width="44" height="43" viewBox="0 0 44 43" fill="none" xmlns="http://www.w3.org/2000/svg">
<g clip-path="url(#clip0_101_118)">
<path d="M23.0609 23.4762C21.1488 24.4929 18.7746 23.767 17.7579 21.8549L16.0534 18.6492C15.9265 18.4104 15.863 18.291 15.8469 18.1769C15.82 17.9856 15.8792 17.7922 16.0084 17.6487C16.0855 17.563 16.2049 17.4995 16.4437 17.3726L21.7011 14.5772C21.9399 14.4502 22.0593 14.3867 22.1734 14.3707C22.3647 14.3438 22.5581 14.4029 22.7016 14.5322C22.7873 14.6093 22.8508 14.7287 22.9777 14.9675L24.6822 18.1732C25.6989 20.0853 24.973 22.4595 23.0609 23.4762ZM23.0609 23.4762L23.9814 25.2073M23.1482 15.2881L24.5907 14.521C24.8596 14.3781 24.994 14.3066 25.1234 14.2941C25.296 14.2775 25.468 14.3301 25.6018 14.4404C25.7021 14.5231 25.7735 14.6575 25.9165 14.9264L26.0699 15.2149C26.3552 15.7515 26.4979 16.0198 26.5559 16.2713C26.7135 16.9538 26.495 17.6685 25.9827 18.1462C25.794 18.3222 25.5257 18.4649 24.989 18.7502M16.2239 18.9698L14.7813 19.7368C14.5125 19.8798 14.378 19.9512 14.2953 20.0515C14.1851 20.1853 14.1325 20.3573 14.1491 20.5299C14.1616 20.6593 14.233 20.7937 14.376 21.0626L14.5294 21.3511C14.8147 21.8877 14.9574 22.156 15.1334 22.3448C15.6111 22.857 16.3258 23.0755 17.0083 22.918C17.2598 22.8599 17.5281 22.7173 18.0647 22.4319M22.5799 28.9131L27.8373 26.1177C27.9789 26.0424 28.0327 25.8665 27.9574 25.7249C27.3549 24.5918 25.9479 24.1616 24.8148 24.7641L23.1479 25.6504C22.0148 26.2529 21.5846 27.6599 22.1871 28.793C22.2624 28.9346 22.4383 28.9884 22.5799 28.9131Z" stroke="#FF5555" stroke-width="1.30704" stroke-linecap="round" stroke-linejoin="round"/>
</g>
<circle cx="22.1407" cy="21.7454" r="15.3578" transform="rotate(-28 22.1407 21.7454)" stroke="#FF5555" stroke-width="0.653521"/>
<defs>
<clipPath id="clip0_101_118">
<rect width="15.6845" height="15.6845" fill="white" transform="translate(11.5345 18.5026) rotate(-28)"/>
</clipPath>
</defs>
</svg>
